# xmcd
#
# Track frame offsets: 
#        151
#        20313
#        37113
#        57024
#        73291
#        92317
#        113229
#        126724
#        149128
#        171959
#
# Disc length: 2493 seconds
#
# Revision: 0
# Processed by: cddbd v1.5.2PL0 Copyright (c) Steve Scherf et al.
# Submitted via: ExactAudioCopy v0.95b3
#
DISCID=9609bb0a
DTITLE=Tim Mahoney - Full Circle
DYEAR=2003
DGENRE=Blues
TTITLE0=Glasses Are Old
TTITLE1=Shine
TTITLE2=The Question
TTITLE3=Welcome To New York
TTITLE4=Don't Stop Believin'
TTITLE5=Hero
TTITLE6=Mind Of An Angle
TTITLE7=When You Turn Around
TTITLE8=Late Breaking Sky
TTITLE9=Maybe Someday
EXTD=
EXTT0=
EXTT1=
EXTT2=
EXTT3=
EXTT4=
EXTT5=
EXTT6=
EXTT7=
EXTT8=
EXTT9=
PLAYORDER=
